<?xml version="1.0" encoding="UTF-8"?>
<svg width="800px" height="800px" viewBox="0 0 120 120" xmlns="http://www.w3.org/2000/svg">
<rect width="120" height="120" fill="#EFF1F3"/>
<path d="m33.25 38.482c0.01-1.4344 1.1696-2.5952 2.604-2.6066h47.292c1.4385 0 2.604 1.1681 2.604 2.6066v42.037c-0.01 1.4344-1.1696 2.5952-2.604 2.6066h-47.292c-1.4385-0.0014-2.604-1.168-2.604-2.6066v-42.037zm47.25 2.6435h-42v36.75l24.392-24.397c1.0251-1.0247 2.6867-1.0247 3.7118 0l13.897 13.923v-26.276zm-36.751 10.5c0 2.8995 2.3505 5.25 5.25 5.25s5.25-2.3505 5.25-5.25-2.3505-5.25-5.25-5.25-5.25 2.3505-5.25 5.25z" clip-rule="evenodd" fill="#687787" fill-rule="evenodd"/>
</svg>
